<svg width="428" height="531" viewBox="0 0 428 531" fill="none" xmlns="http://www.w3.org/2000/svg">
<path fill-rule="evenodd" clip-rule="evenodd" d="M426.565 314.599V8.92471C426.565 2.65262 419.365 -0.884062 414.427 2.98419V2.95656L273.986 112.345C254.951 106.764 234.841 103.697 214.013 103.697C193.186 103.697 172.993 106.764 153.931 112.373L83.6134 57.5541L13.572 2.98419C8.63408 -0.856432 1.43408 2.65262 1.43408 8.92471V314.599C1.40649 315.262 1.37891 315.953 1.37891 316.644C1.37891 316.986 1.39243 317.335 1.40608 317.687L1.40609 317.687C1.42001 318.046 1.43408 318.409 1.43408 318.771H426.565C426.565 318.558 426.57 318.346 426.577 318.136C426.582 317.993 426.587 317.85 426.593 317.708C426.607 317.355 426.62 317.003 426.62 316.644C426.62 315.925 426.593 315.262 426.565 314.599ZM53.2203 455.899C43.372 444.516 34.6824 432.082 27.3996 418.764L27.0686 418.184H400.972L400.641 418.764C393.358 432.082 384.669 444.488 374.82 455.899H53.2203ZM214.024 529.619C169.5 529.619 128.203 515.914 94.0513 492.484H333.996C299.844 515.914 258.548 529.619 214.024 529.619ZM11.5117 381.602C8.28408 371.545 5.80132 361.156 4.09098 350.49C3.81511 348.694 3.56684 346.871 3.31856 345.047H424.698C424.45 346.871 424.201 348.694 423.925 350.49C422.215 361.156 419.732 371.545 416.505 381.602H11.5117Z" fill="url(#paint0_linear_11327_2546)"/>
<defs>
<linearGradient id="paint0_linear_11327_2546" x1="214" y1="1.37305" x2="214" y2="529.619" gradientUnits="userSpaceOnUse">
<stop stop-color="#FF719A"/>
<stop offset="1" stop-color="#FF9572"/>
</linearGradient>
</defs>
</svg>
