<svg width="21" height="21" viewBox="0 0 21 21" fill="none" xmlns="http://www.w3.org/2000/svg">
<path d="M4.1338 7.79911C4.48699 5.29911 7.19285 3.35714 10.4741 3.35714C14.0002 3.35714 16.8542 5.59375 16.8542 8.35714C16.8542 9.66518 16.2162 10.8527 15.168 11.7455C14.1996 12.567 13.2084 13.7589 13.2084 15.2277V15.5C13.2084 16.683 11.9837 17.6429 10.4741 17.6429C9.46578 17.6429 8.65117 18.2813 8.65117 19.0714C8.65117 19.8616 9.46578 20.5 10.4741 20.5C14.0002 20.5 16.8542 18.2634 16.8542 15.5V15.2277C16.8542 14.7902 17.1618 14.2589 17.8454 13.6786C19.4917 12.2813 20.5 10.4107 20.5 8.35714C20.5 4.01786 16.0111 0.5 10.4741 0.5C5.31299 0.5 1.06336 3.55804 0.510794 7.48661C0.40256 8.27232 1.12033 8.97768 2.12292 9.0625C3.12551 9.14732 4.02557 8.58482 4.1338 7.79911ZM8.65117 8.35714C8.65117 7.56696 9.46578 6.92857 10.4741 6.92857C11.4824 6.92857 12.297 7.56696 12.297 8.35714C12.297 8.95089 12.9065 9.42857 13.6641 9.42857C14.4218 9.42857 15.0313 8.95089 15.0313 8.35714C15.0313 6.38393 12.9919 4.78571 10.4741 4.78571C7.95619 4.78571 5.91682 6.38393 5.91682 8.35714C5.91682 8.95089 6.52635 9.42857 7.284 9.42857C8.04164 9.42857 8.65117 8.95089 8.65117 8.35714Z" fill="#F7F7F8"/>
</svg>
