<svg width="21" height="21" viewBox="0 0 21 21" fill="none" xmlns="http://www.w3.org/2000/svg">
<path fill-rule="evenodd" clip-rule="evenodd" d="M18.5 10.5C18.5 14.9183 14.9183 18.5 10.5 18.5C6.08172 18.5 2.5 14.9183 2.5 10.5C2.5 6.08172 6.08172 2.5 10.5 2.5C14.9183 2.5 18.5 6.08172 18.5 10.5ZM9.43934 7.43931C9.14645 7.73221 8.67157 7.73221 8.37868 7.43931C8.08579 7.14642 8.08579 6.67155 8.37868 6.37865C9.55025 5.20708 11.4497 5.20708 12.6213 6.37865C13.7929 7.55023 13.7929 9.44972 12.6213 10.6213C12.2288 11.0138 11.7528 11.2756 11.25 11.4051V11.75C11.25 12.1642 10.9142 12.5 10.5 12.5C10.0858 12.5 9.75 12.1642 9.75 11.75V11.25C9.75 10.5297 10.3199 10.0783 10.8313 9.96322C11.0982 9.90318 11.3516 9.76969 11.5607 9.56063C12.1464 8.97485 12.1464 8.0251 11.5607 7.43931C10.9749 6.85353 10.0251 6.85353 9.43934 7.43931ZM10.5 15.5C11.0523 15.5 11.5 15.0523 11.5 14.5C11.5 13.9477 11.0523 13.5 10.5 13.5C9.94771 13.5 9.5 13.9477 9.5 14.5C9.5 15.0523 9.94771 15.5 10.5 15.5Z" fill="#F7F7F8"/>
</svg>
