<svg width="21" height="21" viewBox="0 0 21 21" fill="none" xmlns="http://www.w3.org/2000/svg">
<path d="M10.501 8.5C12.1578 8.5 13.501 7.15685 13.501 5.5C13.501 3.84315 12.1578 2.5 10.501 2.5C8.84412 2.5 7.50098 3.84315 7.50098 5.5C7.50098 7.15685 8.84412 8.5 10.501 8.5Z" fill="#F7F7F8"/>
<path d="M3.96615 14.9935C3.77126 15.5016 3.94533 16.071 4.37518 16.4046C6.06753 17.718 8.19299 18.5 10.5011 18.5C12.8115 18.5 14.939 17.7164 16.6322 16.4006C17.0618 16.0667 17.2355 15.4971 17.0403 14.9892C16.031 12.3635 13.4852 10.5 10.504 10.5C7.52129 10.5 4.97427 12.3656 3.96615 14.9935Z" fill="#F7F7F8"/>
</svg>
